<mxfile host="65bd71144e">
    <diagram id="aqaw4eEY65Yh9GbI0gWg" name="Page-1">
        <mxGraphModel dx="1299" dy="767" grid="1" gridSize="10" guides="1" tooltips="1" connect="1" arrows="1" fold="1" page="1" pageScale="1" pageWidth="3300" pageHeight="4681" math="0" shadow="0">
            <root>
                <mxCell id="0"/>
                <mxCell id="1" parent="0"/>
                <mxCell id="s3u4GrgzM-nCN9nKou5N-2" value="" style="endArrow=classic;html=1;entryX=0.5;entryY=0;entryDx=0;entryDy=0;" edge="1" parent="1" target="mNnTmuFtJYIANuq3Lz7P-22">
                    <mxGeometry width="50" height="50" relative="1" as="geometry">
                        <mxPoint x="420" y="360" as="sourcePoint"/>
                        <mxPoint x="250" y="830" as="targetPoint"/>
                    </mxGeometry>
                </mxCell>
                <mxCell id="s3u4GrgzM-nCN9nKou5N-3" value="" style="endArrow=classic;html=1;" edge="1" parent="1">
                    <mxGeometry width="50" height="50" relative="1" as="geometry">
                        <mxPoint x="420" y="360" as="sourcePoint"/>
                        <mxPoint x="560" y="480" as="targetPoint"/>
                    </mxGeometry>
                </mxCell>
                <mxCell id="s3u4GrgzM-nCN9nKou5N-4" value="&lt;b&gt;Yes&lt;/b&gt;" style="text;html=1;align=center;verticalAlign=middle;resizable=0;points=[];autosize=1;strokeColor=none;fillColor=none;" vertex="1" parent="1">
                    <mxGeometry x="280" y="570" width="40" height="20" as="geometry"/>
                </mxCell>
                <mxCell id="s3u4GrgzM-nCN9nKou5N-5" value="&lt;b&gt;No&lt;/b&gt;" style="text;html=1;align=center;verticalAlign=middle;resizable=0;points=[];autosize=1;strokeColor=none;fillColor=none;" vertex="1" parent="1">
                    <mxGeometry x="495" y="380" width="30" height="20" as="geometry"/>
                </mxCell>
                <mxCell id="mNnTmuFtJYIANuq3Lz7P-9" value="" style="edgeStyle=none;html=1;fontColor=#7F00FF;" edge="1" parent="1" source="s3u4GrgzM-nCN9nKou5N-8" target="mNnTmuFtJYIANuq3Lz7P-8">
                    <mxGeometry relative="1" as="geometry"/>
                </mxCell>
                <mxCell id="s3u4GrgzM-nCN9nKou5N-8" value="call&amp;nbsp;&lt;span style=&quot;color: rgb(130 , 80 , 223) ; background-color: rgb(255 , 255 , 255) ; font-family: &amp;#34;consolas&amp;#34; , &amp;#34;courier new&amp;#34; , monospace ; font-size: 14px&quot;&gt;process_one_context(&lt;/span&gt;&lt;span style=&quot;background-color: rgb(255 , 255 , 255) ; font-family: &amp;#34;consolas&amp;#34; , &amp;#34;courier new&amp;#34; , monospace ; font-size: 14px&quot;&gt;trench number&lt;/span&gt;&lt;span style=&quot;color: rgb(130 , 80 , 223) ; background-color: rgb(255 , 255 , 255) ; font-family: &amp;#34;consolas&amp;#34; , &amp;#34;courier new&amp;#34; , monospace ; font-size: 14px&quot;&gt;,&lt;/span&gt;&lt;span style=&quot;font-family: &amp;#34;consolas&amp;#34; , &amp;#34;courier new&amp;#34; , monospace ; font-size: 14px ; color: rgb(5 , 80 , 174)&quot;&gt;self&lt;/span&gt;&lt;span style=&quot;background-color: rgb(255 , 255 , 255) ; color: rgb(36 , 41 , 47) ; font-family: &amp;#34;consolas&amp;#34; , &amp;#34;courier new&amp;#34; , monospace ; font-size: 14px&quot;&gt;.curr_context&lt;/span&gt;&lt;span style=&quot;background-color: rgb(255 , 255 , 255) ; color: rgb(130 , 80 , 223) ; font-family: &amp;#34;consolas&amp;#34; , &amp;#34;courier new&amp;#34; , monospace ; font-size: 14px&quot;&gt;)&lt;/span&gt;&lt;br&gt;in 3d_2_2d.py&amp;nbsp; on the current context" style="rounded=1;whiteSpace=wrap;html=1;" vertex="1" parent="1">
                    <mxGeometry x="480" y="490" width="240" height="110" as="geometry"/>
                </mxCell>
                <mxCell id="mNnTmuFtJYIANuq3Lz7P-3" value="" style="edgeStyle=none;html=1;fontColor=#000000;" edge="1" parent="1" source="mNnTmuFtJYIANuq3Lz7P-2">
                    <mxGeometry relative="1" as="geometry">
                        <mxPoint x="420" y="200" as="targetPoint"/>
                    </mxGeometry>
                </mxCell>
                <mxCell id="mNnTmuFtJYIANuq3Lz7P-2" value="Activate_model&amp;nbsp;" style="ellipse;whiteSpace=wrap;html=1;fillColor=#f8cecc;strokeColor=#b85450;" vertex="1" parent="1">
                    <mxGeometry x="360" y="30" width="120" height="120" as="geometry"/>
                </mxCell>
                <mxCell id="mNnTmuFtJYIANuq3Lz7P-5" value="" style="shape=singleArrow;whiteSpace=wrap;html=1;arrowWidth=0.4;arrowSize=0.4;" vertex="1" parent="1">
                    <mxGeometry x="620" y="260" width="250" height="40" as="geometry"/>
                </mxCell>
                <mxCell id="mNnTmuFtJYIANuq3Lz7P-7" value="for each batch folder, check if it contains 2 png images" style="rounded=1;whiteSpace=wrap;html=1;fontColor=#000000;" vertex="1" parent="1">
                    <mxGeometry x="890" y="212.5" width="290" height="135" as="geometry"/>
                </mxCell>
                <mxCell id="mNnTmuFtJYIANuq3Lz7P-11" value="" style="edgeStyle=none;html=1;fontColor=#7F00FF;" edge="1" parent="1" source="mNnTmuFtJYIANuq3Lz7P-8" target="mNnTmuFtJYIANuq3Lz7P-10">
                    <mxGeometry relative="1" as="geometry"/>
                </mxCell>
                <mxCell id="mNnTmuFtJYIANuq3Lz7P-14" value="" style="edgeStyle=none;html=1;fontColor=#000000;entryX=1;entryY=0;entryDx=0;entryDy=0;" edge="1" parent="1" source="mNnTmuFtJYIANuq3Lz7P-8" target="mNnTmuFtJYIANuq3Lz7P-22">
                    <mxGeometry relative="1" as="geometry">
                        <mxPoint x="370" y="885" as="targetPoint"/>
                    </mxGeometry>
                </mxCell>
                <mxCell id="mNnTmuFtJYIANuq3Lz7P-8" value="if any error&amp;nbsp;" style="rhombus;whiteSpace=wrap;html=1;rounded=1;" vertex="1" parent="1">
                    <mxGeometry x="510" y="695" width="180" height="80" as="geometry"/>
                </mxCell>
                <mxCell id="mNnTmuFtJYIANuq3Lz7P-10" value="pop up warning for user" style="whiteSpace=wrap;html=1;rounded=1;" vertex="1" parent="1">
                    <mxGeometry x="540" y="865" width="120" height="60" as="geometry"/>
                </mxCell>
                <mxCell id="mNnTmuFtJYIANuq3Lz7P-12" value="&lt;font color=&quot;#000000&quot;&gt;Yes&lt;/font&gt;" style="text;html=1;align=center;verticalAlign=middle;resizable=0;points=[];autosize=1;strokeColor=none;fillColor=none;fontColor=#7F00FF;" vertex="1" parent="1">
                    <mxGeometry x="615" y="800" width="30" height="20" as="geometry"/>
                </mxCell>
                <mxCell id="mNnTmuFtJYIANuq3Lz7P-15" value="No" style="text;html=1;align=center;verticalAlign=middle;resizable=0;points=[];autosize=1;strokeColor=none;fillColor=none;fontColor=#000000;" vertex="1" parent="1">
                    <mxGeometry x="440" y="800" width="30" height="20" as="geometry"/>
                </mxCell>
                <mxCell id="mNnTmuFtJYIANuq3Lz7P-17" value="&lt;span style=&quot;color: rgb(51 , 51 , 51)&quot;&gt;if the 2d target images have been created in the context&lt;/span&gt;" style="rhombus;whiteSpace=wrap;html=1;rounded=1;" vertex="1" parent="1">
                    <mxGeometry x="240" y="200" width="360" height="160" as="geometry"/>
                </mxCell>
                <mxCell id="mNnTmuFtJYIANuq3Lz7P-18" value="Known Variables" style="swimlane;fontStyle=0;childLayout=stackLayout;horizontal=1;startSize=30;horizontalStack=0;resizeParent=1;resizeParentMax=0;resizeLast=0;collapsible=1;marginBottom=0;rounded=0;fillColor=#cce5ff;strokeColor=#36393d;" vertex="1" parent="1">
                    <mxGeometry x="60" y="40" width="260" height="110" as="geometry"/>
                </mxCell>
                <mxCell id="mNnTmuFtJYIANuq3Lz7P-19" value="current context number   self.curr_context" style="text;strokeColor=none;fillColor=none;align=left;verticalAlign=middle;spacingLeft=4;spacingRight=4;overflow=hidden;points=[[0,0.5],[1,0.5]];portConstraint=eastwest;rotatable=0;rounded=0;fontColor=#000000;" vertex="1" parent="mNnTmuFtJYIANuq3Lz7P-18">
                    <mxGeometry y="30" width="260" height="30" as="geometry"/>
                </mxCell>
                <mxCell id="mNnTmuFtJYIANuq3Lz7P-20" value="current img number   self.curr_img" style="text;strokeColor=none;fillColor=none;align=left;verticalAlign=middle;spacingLeft=4;spacingRight=4;overflow=hidden;points=[[0,0.5],[1,0.5]];portConstraint=eastwest;rotatable=0;rounded=0;fontColor=#000000;" vertex="1" parent="mNnTmuFtJYIANuq3Lz7P-18">
                    <mxGeometry y="60" width="260" height="50" as="geometry"/>
                </mxCell>
                <mxCell id="mNnTmuFtJYIANuq3Lz7P-24" value="" style="edgeStyle=none;html=1;fontColor=#000000;" edge="1" parent="1" source="mNnTmuFtJYIANuq3Lz7P-22" target="mNnTmuFtJYIANuq3Lz7P-23">
                    <mxGeometry relative="1" as="geometry"/>
                </mxCell>
                <mxCell id="mNnTmuFtJYIANuq3Lz7P-22" value="compare object with the candiate images" style="ellipse;whiteSpace=wrap;html=1;fillColor=#f8cecc;strokeColor=#b85450;" vertex="1" parent="1">
                    <mxGeometry x="205" y="850" width="130" height="130" as="geometry"/>
                </mxCell>
                <mxCell id="mNnTmuFtJYIANuq3Lz7P-26" value="" style="edgeStyle=none;html=1;fontFamily=Helvetica;fontSize=12;fontColor=#7F00FF;" edge="1" parent="1" source="mNnTmuFtJYIANuq3Lz7P-23" target="mNnTmuFtJYIANuq3Lz7P-25">
                    <mxGeometry relative="1" as="geometry"/>
                </mxCell>
                <mxCell id="mNnTmuFtJYIANuq3Lz7P-23" value="&lt;font style=&quot;font-size: 12px&quot;&gt;add adjacent 60 images (not matched already) to the list of candidate target images.&lt;font color=&quot;#7f00ff&quot;&gt;&amp;nbsp;&lt;/font&gt;&lt;/font&gt;&lt;span style=&quot;background-color: rgb(255 , 255 , 255)&quot;&gt;&lt;font style=&quot;font-size: 12px&quot;&gt;&lt;font color=&quot;#7f00ff&quot;&gt;potential_match_space&lt;/font&gt;&lt;br&gt;&lt;font color=&quot;#24292f&quot;&gt;each item contains a 2-element tuple. with the path to the front and back of the image&amp;nbsp;&amp;nbsp;&lt;/font&gt;&lt;/font&gt;&lt;br&gt;&lt;/span&gt;" style="rounded=1;whiteSpace=wrap;html=1;" vertex="1" parent="1">
                    <mxGeometry x="160" y="1145" width="220" height="95" as="geometry"/>
                </mxCell>
                <mxCell id="mNnTmuFtJYIANuq3Lz7P-30" value="" style="edgeStyle=none;html=1;fontFamily=Helvetica;fontSize=12;fontColor=#7F00FF;" edge="1" parent="1">
                    <mxGeometry relative="1" as="geometry">
                        <mxPoint x="384" y="1430" as="sourcePoint"/>
                        <mxPoint x="384" y="1370" as="targetPoint"/>
                        <Array as="points">
                            <mxPoint x="510" y="1430"/>
                            <mxPoint x="510" y="1370"/>
                        </Array>
                    </mxGeometry>
                </mxCell>
                <mxCell id="mNnTmuFtJYIANuq3Lz7P-32" value="" style="edgeStyle=none;html=1;fontFamily=Helvetica;fontSize=12;fontColor=#7F00FF;" edge="1" parent="1" source="mNnTmuFtJYIANuq3Lz7P-25" target="mNnTmuFtJYIANuq3Lz7P-31">
                    <mxGeometry relative="1" as="geometry"/>
                </mxCell>
                <mxCell id="mNnTmuFtJYIANuq3Lz7P-25" value="call&amp;nbsp;&lt;span style=&quot;color: rgb(130 , 80 , 223) ; background-color: rgb(255 , 255 , 255) ; font-family: &amp;#34;consolas&amp;#34; , &amp;#34;courier new&amp;#34; , monospace ; font-size: 14px&quot;&gt;img_compare&amp;nbsp;&lt;/span&gt;&lt;span&gt;to compare each image in potential_match_space with the query image. Record the number of match points and add the number of match points and its respective image as a key-value pair&lt;/span&gt;" style="whiteSpace=wrap;html=1;rounded=1;" vertex="1" parent="1">
                    <mxGeometry x="160" y="1350" width="220" height="102.5" as="geometry"/>
                </mxCell>
                <mxCell id="mNnTmuFtJYIANuq3Lz7P-34" value="" style="edgeStyle=none;html=1;fontFamily=Helvetica;fontSize=12;fontColor=#7F00FF;" edge="1" parent="1" source="mNnTmuFtJYIANuq3Lz7P-31" target="mNnTmuFtJYIANuq3Lz7P-33">
                    <mxGeometry relative="1" as="geometry"/>
                </mxCell>
                <mxCell id="mNnTmuFtJYIANuq3Lz7P-31" value="rank the dictionary by value&amp;nbsp;" style="whiteSpace=wrap;html=1;rounded=1;" vertex="1" parent="1">
                    <mxGeometry x="160" y="1530" width="220" height="83.75" as="geometry"/>
                </mxCell>
                <mxCell id="mNnTmuFtJYIANuq3Lz7P-36" value="" style="edgeStyle=none;html=1;fontFamily=Helvetica;fontSize=12;fontColor=#7F00FF;" edge="1" parent="1" source="mNnTmuFtJYIANuq3Lz7P-33" target="mNnTmuFtJYIANuq3Lz7P-35">
                    <mxGeometry relative="1" as="geometry"/>
                </mxCell>
                <mxCell id="mNnTmuFtJYIANuq3Lz7P-33" value="add list of the images from the dictionary to the cadidate area&amp;nbsp;" style="rounded=1;whiteSpace=wrap;html=1;" vertex="1" parent="1">
                    <mxGeometry x="160" y="1705.63" width="220" height="94.37" as="geometry"/>
                </mxCell>
                <mxCell id="mNnTmuFtJYIANuq3Lz7P-38" value="" style="edgeStyle=none;html=1;fontFamily=Helvetica;fontSize=12;fontColor=#7F00FF;" edge="1" parent="1" source="mNnTmuFtJYIANuq3Lz7P-35" target="mNnTmuFtJYIANuq3Lz7P-37">
                    <mxGeometry relative="1" as="geometry"/>
                </mxCell>
                <mxCell id="mNnTmuFtJYIANuq3Lz7P-41" value="" style="edgeStyle=none;html=1;fontFamily=Helvetica;fontSize=12;fontColor=#000000;" edge="1" parent="1" source="mNnTmuFtJYIANuq3Lz7P-35" target="mNnTmuFtJYIANuq3Lz7P-40">
                    <mxGeometry relative="1" as="geometry"/>
                </mxCell>
                <mxCell id="mNnTmuFtJYIANuq3Lz7P-35" value="check if a match exists&amp;nbsp;" style="rhombus;whiteSpace=wrap;html=1;rounded=1;" vertex="1" parent="1">
                    <mxGeometry x="150" y="1887.19" width="240" height="80" as="geometry"/>
                </mxCell>
                <mxCell id="mNnTmuFtJYIANuq3Lz7P-44" value="" style="edgeStyle=none;html=1;fontFamily=Helvetica;fontSize=12;fontColor=#000000;" edge="1" parent="1" source="mNnTmuFtJYIANuq3Lz7P-37" target="mNnTmuFtJYIANuq3Lz7P-43">
                    <mxGeometry relative="1" as="geometry"/>
                </mxCell>
                <mxCell id="mNnTmuFtJYIANuq3Lz7P-37" value="click select" style="whiteSpace=wrap;html=1;rounded=1;" vertex="1" parent="1">
                    <mxGeometry x="480" y="1887.19" width="200" height="82.81" as="geometry"/>
                </mxCell>
                <mxCell id="mNnTmuFtJYIANuq3Lz7P-39" value="&lt;font color=&quot;#000000&quot;&gt;Yes&amp;nbsp;&lt;/font&gt;" style="text;html=1;align=center;verticalAlign=middle;resizable=0;points=[];autosize=1;strokeColor=none;fillColor=none;fontSize=12;fontFamily=Helvetica;fontColor=#7F00FF;" vertex="1" parent="1">
                    <mxGeometry x="420" y="1897.19" width="40" height="20" as="geometry"/>
                </mxCell>
                <mxCell id="mNnTmuFtJYIANuq3Lz7P-45" style="edgeStyle=none;html=1;fontFamily=Helvetica;fontSize=12;fontColor=#000000;entryX=0;entryY=0.5;entryDx=0;entryDy=0;" edge="1" parent="1" source="mNnTmuFtJYIANuq3Lz7P-40" target="mNnTmuFtJYIANuq3Lz7P-25">
                    <mxGeometry relative="1" as="geometry">
                        <mxPoint x="120" y="1410" as="targetPoint"/>
                        <Array as="points">
                            <mxPoint x="110" y="2110"/>
                            <mxPoint x="110" y="1401"/>
                        </Array>
                    </mxGeometry>
                </mxCell>
                <mxCell id="mNnTmuFtJYIANuq3Lz7P-40" value="click button for more candidate to add 30 next images to the new&amp;nbsp;&lt;span style=&quot;color: rgb(127 , 0 , 255) ; background-color: rgb(255 , 255 , 255)&quot;&gt;potential_match_space&lt;/span&gt;" style="whiteSpace=wrap;html=1;rounded=1;" vertex="1" parent="1">
                    <mxGeometry x="160" y="2060" width="215" height="90" as="geometry"/>
                </mxCell>
                <mxCell id="mNnTmuFtJYIANuq3Lz7P-42" value="No" style="text;html=1;align=center;verticalAlign=middle;resizable=0;points=[];autosize=1;strokeColor=none;fillColor=none;fontSize=12;fontFamily=Helvetica;fontColor=#000000;" vertex="1" parent="1">
                    <mxGeometry x="275" y="2000" width="30" height="20" as="geometry"/>
                </mxCell>
                <mxCell id="mNnTmuFtJYIANuq3Lz7P-43" value="add batch number and image numebr to the database, mark the image as selected" style="whiteSpace=wrap;html=1;rounded=1;" vertex="1" parent="1">
                    <mxGeometry x="480" y="2060" width="200" height="90" as="geometry"/>
                </mxCell>
            </root>
        </mxGraphModel>
    </diagram>
</mxfile>